<svg xmlns="http://www.w3.org/2000/svg" viewBox="0 0 460 260" role="img" aria-labelledby="calendarTitle calendarDesc">
  <title id="calendarTitle">オンライン予約のイラスト</title>
  <desc id="calendarDesc">カレンダーとスマートフォンを抽象的に描いた青緑のイラスト</desc>
  <defs>
    <linearGradient id="calendar-bg" x1="0" y1="0" x2="1" y2="1">
      <stop offset="0%" stop-color="#edf6f4" />
      <stop offset="100%" stop-color="#d1ebe5" />
    </linearGradient>
  </defs>
  <rect width="460" height="260" rx="30" fill="url(#calendar-bg)" />
  <g transform="translate(48 40)">
    <rect x="0" y="0" width="260" height="180" rx="24" fill="#ffffff" stroke="#9fc7be" stroke-width="6" />
    <rect x="0" y="26" width="260" height="42" rx="12" fill="#0f4c81" opacity="0.75" />
    <g fill="#2d8a7a" opacity="0.85">
      <rect x="20" y="90" width="36" height="36" rx="10" />
      <rect x="72" y="90" width="36" height="36" rx="10" />
      <rect x="124" y="90" width="36" height="36" rx="10" />
      <rect x="176" y="90" width="36" height="36" rx="10" />
      <rect x="20" y="140" width="36" height="20" rx="10" opacity="0.6" />
      <rect x="72" y="140" width="60" height="20" rx="10" opacity="0.4" />
      <rect x="148" y="140" width="64" height="20" rx="10" opacity="0.2" />
    </g>
  </g>
  <g transform="translate(280 70)">
    <rect x="36" y="6" width="96" height="168" rx="28" fill="#ffffff" stroke="#2d8a7a" stroke-width="6" />
    <rect x="62" y="38" width="44" height="68" rx="12" fill="#cde9e4" />
    <rect x="62" y="116" width="44" height="28" rx="10" fill="#0f4c81" opacity="0.65" />
    <circle cx="84" cy="158" r="6" fill="#0f4c81" />
  </g>
  <path d="M40 210 C140 240 320 240 420 210" fill="none" stroke="#9fc7be" stroke-width="8" opacity="0.4" stroke-linecap="round" />
</svg>
