<svg xmlns="http://www.w3.org/2000/svg" viewBox="0 0 480 240" role="img" aria-labelledby="supportTitle supportDesc">
  <title id="supportTitle">匿名相談を支えるイメージ</title>
  <desc id="supportDesc">柔らかな青緑の背景に、スマートフォンを持つ人物のシルエットを抽象的に表現した図</desc>
  <defs>
    <linearGradient id="support-bg" x1="0" y1="0" x2="1" y2="1">
      <stop offset="0%" stop-color="#e6f3f1" />
      <stop offset="100%" stop-color="#cce5e0" />
    </linearGradient>
    <radialGradient id="support-glow" cx="0.4" cy="0.4" r="0.7">
      <stop offset="0%" stop-color="#2d8a7a" stop-opacity="0.35" />
      <stop offset="100%" stop-color="#2d8a7a" stop-opacity="0" />
    </radialGradient>
  </defs>
  <rect width="480" height="240" rx="32" fill="url(#support-bg)" />
  <rect x="20" y="20" width="440" height="200" rx="28" fill="url(#support-glow)" opacity="0.25" />
  <g transform="translate(120 40)">
    <rect x="96" y="8" width="72" height="112" rx="24" fill="#0f4c81" opacity="0.12" />
    <rect x="180" y="36" width="120" height="160" rx="40" fill="#0f4c81" opacity="0.09" />
    <g transform="translate(0 28)">
      <circle cx="48" cy="48" r="44" fill="#7aa6bf" />
      <rect x="20" y="92" width="56" height="88" rx="24" fill="#2d8a7a" />
      <rect x="34" y="112" width="28" height="44" rx="12" fill="#0f4c81" opacity="0.7" />
    </g>
    <g transform="translate(164 32)">
      <circle cx="54" cy="46" r="46" fill="#9fc7be" />
      <rect x="24" y="90" width="60" height="98" rx="26" fill="#2d8a7a" />
      <rect x="44" y="108" width="20" height="42" rx="10" fill="#0f4c81" opacity="0.7" />
    </g>
    <g transform="translate(96 -12)">
      <rect x="28" y="40" width="64" height="110" rx="20" fill="#ffffff" stroke="#7aa6bf" stroke-width="6" />
      <rect x="46" y="56" width="28" height="54" rx="12" fill="#cde9e4" />
      <circle cx="60" cy="118" r="4" fill="#0f4c81" />
    </g>
  </g>
</svg>
