<svg xmlns="http://www.w3.org/2000/svg" viewBox="0 0 420 240" role="img" aria-labelledby="surveyTitle surveyDesc">
  <title id="surveyTitle">セルフチェックのイラスト</title>
  <desc id="surveyDesc">アンケートに回答する手元を抽象化した青緑のイラスト</desc>
  <defs>
    <linearGradient id="survey-bg" x1="0" y1="0" x2="1" y2="1">
      <stop offset="0%" stop-color="#eff7f5" />
      <stop offset="100%" stop-color="#d4ebe6" />
    </linearGradient>
  </defs>
  <rect width="420" height="240" rx="28" fill="url(#survey-bg)" />
  <g transform="translate(40 32)">
    <rect x="0" y="0" width="220" height="176" rx="20" fill="#ffffff" stroke="#9fc7be" stroke-width="5" />
    <g fill="#0f4c81" opacity="0.65">
      <rect x="28" y="40" width="120" height="10" rx="4" />
      <rect x="28" y="64" width="160" height="10" rx="4" />
      <rect x="28" y="88" width="90" height="10" rx="4" />
    </g>
    <g fill="#2d8a7a" opacity="0.55">
      <rect x="28" y="120" width="40" height="16" rx="6" />
      <rect x="76" y="120" width="52" height="16" rx="6" />
      <rect x="136" y="120" width="52" height="16" rx="6" />
    </g>
  </g>
  <g transform="translate(240 40)">
    <path d="M20 80 C20 40 60 20 100 28 L140 36 C168 40 188 64 184 92 L168 192 L104 180 L112 128 L68 172 L20 156 Z" fill="#2d8a7a" opacity="0.82" />
    <path d="M86 40 L150 54 L136 130 C120 130 98 104 92 82 Z" fill="#0f4c81" opacity="0.45" />
    <rect x="70" y="18" width="32" height="64" rx="12" fill="#7aa6bf" opacity="0.7" />
  </g>
  <ellipse cx="210" cy="212" rx="150" ry="16" fill="#cde4e0" opacity="0.5" />
</svg>
